<svg width="42" height="37" viewBox="0 0 42 37" fill="none" xmlns="http://www.w3.org/2000/svg">
<path d="M36.6123 2.63174C34.5679 1.3309 32.146 0.782482 29.7515 1.07819C27.3569 1.37391 25.1349 2.49581 23.4567 4.25636L21.0056 6.70792H20.9482L18.5257 4.25636C16.8476 2.49581 14.6255 1.37391 12.231 1.07819C9.83645 0.782482 7.41456 1.3309 5.3702 2.63174C4.17545 3.41787 3.16827 4.46475 2.42189 5.69623C1.67552 6.9277 1.20875 8.31277 1.05559 9.75062C0.902431 11.1885 1.06671 12.6429 1.53649 14.0081C2.00626 15.3733 2.76971 16.6149 3.77125 17.6426L20.8811 36L21.2258 35.6498L21.3312 35.7568L38.24 17.6426C39.2401 16.6129 40.0017 15.3696 40.4692 14.0032C40.9367 12.6367 41.0983 11.1815 40.9424 9.74352C40.7865 8.30556 40.3169 6.92104 39.5678 5.69076C38.8187 4.46049 37.809 3.41545 36.6123 2.63174V2.63174Z" stroke="#404040" stroke-width="1.5" stroke-linecap="round" stroke-linejoin="round"/>
</svg>
