<svg width="28" height="24" viewBox="0 0 28 24" fill="none" xmlns="http://www.w3.org/2000/svg">
<path d="M24.0844 2.02566C22.7592 1.20799 21.1893 0.863275 19.6371 1.04915C18.0849 1.23503 16.6446 1.94022 15.5568 3.04685L13.9679 4.58784H13.9307L12.3604 3.04685C11.2726 1.94022 9.83227 1.23503 8.28009 1.04915C6.72791 0.863275 5.15801 1.20799 3.83283 2.02566C3.05837 2.5198 2.4055 3.17785 1.92169 3.95191C1.43788 4.72598 1.13532 5.5966 1.03604 6.50039C0.936755 7.40418 1.04324 8.3184 1.34776 9.17653C1.65227 10.0347 2.14715 10.8151 2.79636 11.4611L13.8872 23L14.1107 22.7799L14.179 22.8471L25.1395 11.4611C25.7878 10.8139 26.2814 10.0323 26.5845 9.17341C26.8875 8.31449 26.9923 7.39979 26.8912 6.49593C26.7902 5.59206 26.4858 4.7218 26.0002 3.94848C25.5146 3.17516 24.8601 2.51828 24.0844 2.02566V2.02566Z" stroke="#404040" stroke-width="1.3" stroke-linecap="round" stroke-linejoin="round"/>
</svg>
