<svg width="23" height="24" viewBox="0 0 23 24" fill="none" xmlns="http://www.w3.org/2000/svg">
<path d="M20.1787 7.34235L13.9974 1.99902C13.2483 1.35447 12.2928 1 11.3045 1C10.3162 1 9.36074 1.35447 8.61158 1.99902L2.43034 7.34235C1.98145 7.73099 1.6214 8.21162 1.3746 8.75166C1.12781 9.29169 1.00006 9.87849 1 10.4722V19.8906C1 20.7152 1.3276 21.5061 1.91073 22.0893C2.49387 22.6724 3.28476 23 4.10944 23H8.25808V16.1862C8.25808 15.3737 8.17625 12.6677 9.07226 11.4714C9.78416 10.5222 10.492 9.45595 11.3045 9.45595C12 9.45595 13.0908 10.7652 13.5605 11.4714C14.1586 12.3715 14.3861 15.3737 14.3861 16.1862V22.9959H18.8981C19.6249 22.9959 20.3219 22.7072 20.8358 22.1933C21.3498 21.6793 21.6385 20.9823 21.6385 20.2555V10.4722C21.6348 9.87621 21.5024 9.288 21.2505 8.74783C20.9985 8.20765 20.6329 7.72823 20.1787 7.34235V7.34235Z" stroke="#404040" stroke-linecap="round" stroke-linejoin="round"/>
</svg>
