<svg width="22" height="22" viewBox="0 0 22 22" fill="none" xmlns="http://www.w3.org/2000/svg">
<path d="M11.7692 9.9766C11.7692 9.55277 11.4256 9.20917 11.0018 9.20917C10.578 9.20917 10.2344 9.55277 10.2344 9.9766V16.1161C10.2344 16.5399 10.578 16.8835 11.0018 16.8835C11.4256 16.8835 11.7692 16.5399 11.7692 16.1161V9.9766Z" fill="black"/>
<path fill-rule="evenodd" clip-rule="evenodd" d="M10.9999 0C4.9248 0 0 4.9248 0 10.9999C0 17.0749 4.9248 21.9997 10.9999 21.9997C17.0749 21.9997 21.9997 17.0749 21.9997 10.9999C21.9997 4.9248 17.0749 0 10.9999 0ZM1.53486 10.9999C1.53486 5.77249 5.77249 1.53486 10.9999 1.53486C16.2272 1.53486 20.4648 5.77249 20.4648 10.9999C20.4648 16.2272 16.2272 20.4648 10.9999 20.4648C5.77249 20.4648 1.53486 16.2272 1.53486 10.9999Z" fill="black"/>
<path d="M12.023 6.90682C12.023 7.47193 11.5649 7.93006 10.9998 7.93006C10.4347 7.93006 9.97656 7.47193 9.97656 6.90682C9.97656 6.3417 10.4347 5.88358 10.9998 5.88358C11.5649 5.88358 12.023 6.3417 12.023 6.90682Z" fill="black"/>
</svg>
