<svg width="12" height="13" viewBox="0 0 12 13" fill="none" xmlns="http://www.w3.org/2000/svg">
<path d="M6.59151 5.66813C6.59151 5.44412 6.4099 5.26251 6.18589 5.26251C5.96188 5.26251 5.78027 5.44412 5.78027 5.66813V8.91308C5.78027 9.13709 5.96188 9.3187 6.18589 9.3187C6.4099 9.3187 6.59151 9.13709 6.59151 8.91308V5.66813Z" fill="#808080"/>
<path fill-rule="evenodd" clip-rule="evenodd" d="M6.18594 0.395325C2.97503 0.395325 0.37207 2.99828 0.37207 6.20919C0.37207 9.42013 2.97503 12.0231 6.18594 12.0231C9.39687 12.0231 11.9998 9.42013 11.9998 6.20919C11.9998 2.99828 9.39687 0.395325 6.18594 0.395325ZM1.18331 6.20919C1.18331 3.44632 3.42306 1.20656 6.18594 1.20656C8.9488 1.20656 11.1886 3.44632 11.1886 6.20919C11.1886 8.97205 8.9488 11.2118 6.18594 11.2118C3.42306 11.2118 1.18331 8.97205 1.18331 6.20919Z" fill="#808080"/>
<path d="M6.72594 4.04565C6.72594 4.34433 6.48381 4.58647 6.18511 4.58647C5.88641 4.58647 5.64429 4.34433 5.64429 4.04565C5.64429 3.74696 5.88641 3.50482 6.18511 3.50482C6.48381 3.50482 6.72594 3.74696 6.72594 4.04565Z" fill="#808080"/>
</svg>
