<svg width="33" height="34" viewBox="0 0 33 34" fill="none" xmlns="http://www.w3.org/2000/svg">
<circle cx="16.4001" cy="17" r="16" stroke="white" stroke-width="0.5"/>
<path d="M20.63 22.8342H13.1114C12.0724 22.8342 11.2236 21.9854 11.2236 20.9464V13.4278C11.2236 12.3888 12.0724 11.54 13.1114 11.54H20.63C21.669 11.54 22.5178 12.3888 22.5178 13.4278V20.9464C22.5178 21.99 21.6736 22.8342 20.63 22.8342Z" stroke="white" stroke-width="0.5"/>
<path d="M14.8232 19.239C15.3705 19.7864 16.0987 20.0878 16.8733 20.0878C17.6479 20.0878 18.3714 19.7864 18.9234 19.239C19.4707 18.6917 19.7722 17.9635 19.7722 17.1889C19.7722 16.4144 19.4707 15.6861 18.9234 15.1388C18.3761 14.5915 17.6479 14.29 16.8733 14.29C16.0987 14.29 15.3705 14.5915 14.8232 15.1388C14.2759 15.6861 13.9744 16.4144 13.9744 17.1889C13.9744 17.9635 14.2759 18.6917 14.8232 19.239Z" stroke="white" stroke-width="0.5"/>
<path d="M20.3372 14.1938C20.6446 14.1938 20.8938 13.9446 20.8938 13.6372C20.8938 13.3298 20.6446 13.0806 20.3372 13.0806C20.0298 13.0806 19.7806 13.3298 19.7806 13.6372C19.7806 13.9446 20.0298 14.1938 20.3372 14.1938Z" stroke="white" stroke-width="0.5"/>
</svg>
