<svg width="32" height="32" viewBox="0 0 32 32" fill="none" xmlns="http://www.w3.org/2000/svg">
<rect x="-0.25" y="0.25" width="31.5" height="31.5" rx="1.75" transform="matrix(-1 0 0 1 31.5 0)" stroke="#C6AC96" stroke-width="0.5"/>
<path d="M13.0127 16.006C13.0117 16.0846 13.0281 16.1625 13.0608 16.2348C13.0936 16.3071 13.142 16.3721 13.2029 16.4256L18.9094 21.8202C19.163 22.0599 19.5562 22.0599 19.8098 21.8202C20.0634 21.5804 20.0634 21.2088 19.8098 20.969L14.5471 15.994L19.7971 11.031C20.0507 10.7912 20.0507 10.4196 19.7971 10.1798C19.5435 9.94006 19.1504 9.94006 18.8967 10.1798L13.1902 15.5744C13.0634 15.6943 13 15.8501 13 15.994L13.0127 16.006Z" fill="#C6AC96"/>
</svg>
