<svg width="162" height="36" viewBox="0 0 162 36" fill="none" xmlns="http://www.w3.org/2000/svg">
<g clip-path="url(#clip0_1_488)">
<path d="M17.4572 25.1029V26.0946H0V0.0351562H5.45501V25.1029H17.4572Z" fill="white"/>
<path d="M44.6363 0H39.1813V26.0955H44.6363V0Z" fill="white"/>
<path d="M71.3954 26.0947H65.9404V5.95517C65.9404 5.14983 66.1025 4.38656 66.4205 3.66536C66.7386 2.94415 67.1647 2.31911 67.6928 1.78422C68.2269 1.24933 68.851 0.828629 69.5711 0.510098C70.2912 0.191567 71.0534 0.0292969 71.8575 0.0292969C72.6617 0.0292969 73.4238 0.185557 74.156 0.492068C74.8881 0.798579 75.5182 1.22529 76.0523 1.76619C76.5864 2.30709 77.0065 2.94415 77.3245 3.66536C77.6426 4.38656 77.8046 5.14983 77.8046 5.95517C77.8046 6.83264 77.6246 7.63197 77.2705 8.36519C78.2367 8.62362 79.1369 9.03831 79.959 9.60926C80.7872 10.1742 81.4953 10.8473 82.0834 11.6106C82.6715 12.3799 83.1336 13.2273 83.4637 14.1649C83.7937 15.0964 83.9618 16.076 83.9618 17.0917C83.9618 18.3238 83.7277 19.4837 83.2536 20.5836C82.7795 21.6834 82.1314 22.639 81.3093 23.4563C80.4811 24.2737 79.5209 24.9168 78.4227 25.3916C77.3245 25.8664 76.1603 26.1007 74.9361 26.1007C74.324 26.1007 73.7119 26.0346 73.1118 25.9084C72.5116 25.7762 71.9355 25.5959 71.3954 25.3555V26.0947ZM71.3954 24.2557C72.4576 24.8206 73.6399 25.1091 74.9361 25.1091C76.0463 25.1091 77.0905 24.8987 78.0687 24.472C79.0469 24.0453 79.899 23.4744 80.6191 22.7532C81.3393 22.032 81.9094 21.1846 82.3355 20.2169C82.7615 19.2493 82.9716 18.2096 82.9716 17.0977C82.9716 16.0099 82.7855 15.0123 82.4195 14.1048C82.0534 13.1972 81.5433 12.3979 80.8952 11.7128C80.2471 11.0276 79.4789 10.4627 78.5968 10.0119C77.7146 9.56118 76.7604 9.24265 75.7462 9.05634C76.0763 8.55751 76.3344 8.07671 76.5264 7.60192C76.7184 7.12713 76.8084 6.58623 76.8084 5.9732C76.8084 5.3121 76.6764 4.68105 76.4184 4.07404C76.1603 3.47304 75.8063 2.94415 75.3562 2.4934C74.9061 2.04265 74.384 1.68806 73.7779 1.42963C73.1778 1.1712 72.5297 1.03898 71.8515 1.03898H71.3894V24.2557H71.3954Z" fill="white"/>
<path d="M113.175 6.13532L110.552 0.0351562H116.571L127.655 26.1006H121.636L118.378 18.4438H109.352L106.34 26.1006H105.277L113.175 6.13532ZM109.742 17.4462H117.994L113.709 7.44551L109.742 17.4462Z" fill="white"/>
<path d="M150.07 8.77387C149.668 8.28706 149.38 7.77621 149.2 7.23531C149.02 6.70042 148.936 6.14148 148.936 5.57654C148.936 4.84332 149.098 4.14616 149.434 3.47304C149.764 2.79991 150.22 2.21694 150.796 1.70609C151.372 1.20125 152.056 0.792569 152.848 0.486058C153.641 0.179547 154.493 0.0292969 155.417 0.0292969C156.407 0.0292969 157.367 0.233637 158.303 0.636309C159.234 1.03898 160.008 1.62195 160.62 2.3732L159.84 2.86001C159.294 2.21093 158.627 1.71811 157.841 1.38155C157.049 1.04499 156.221 0.876709 155.345 0.876709C154.637 0.876709 153.947 0.9909 153.274 1.22529C152.602 1.45968 151.99 1.80826 151.45 2.27704L160.266 13.0831C160.854 13.7922 161.292 14.5495 161.574 15.3488C161.856 16.1482 162 16.9655 162 17.8009C162 18.8947 161.754 19.9465 161.256 20.9502C160.758 21.9538 160.08 22.8373 159.222 23.6006C158.357 24.3639 157.343 24.9649 156.179 25.4156C155.009 25.8603 153.755 26.0827 152.41 26.0827C150.874 26.0827 149.41 25.7822 148.017 25.1872C146.625 24.5862 145.467 23.7208 144.549 22.5849L145.365 22.0981C146.193 23.1318 147.231 23.9131 148.48 24.442C149.734 24.9709 151.042 25.2353 152.41 25.2353C153.214 25.2353 153.995 25.1391 154.763 24.9468C155.531 24.7545 156.257 24.472 156.941 24.1114C157.625 23.7448 158.243 23.3121 158.801 22.8013C159.354 22.2964 159.81 21.7134 160.164 21.0644L150.07 8.77387Z" fill="white"/>
<path d="M10.676 28.5957L11.5341 29.4551L5.00493 36L4.13477 35.1226L10.676 28.5957Z" fill="white"/>
</g>
<defs>
<clipPath id="clip0_1_488">
<rect width="162" height="36" fill="white"/>
</clipPath>
</defs>
</svg>
