<svg width="42" height="41" viewBox="0 0 42 41" fill="none" xmlns="http://www.w3.org/2000/svg">
<path d="M35.2979 17.2566C38.4802 14.0784 38.4817 8.92722 35.3014 5.75102C32.1211 2.57482 26.9633 2.57637 23.781 5.75452L15.8061 13.7191C12.6239 16.8973 12.6223 22.0485 15.8026 25.2247C18.9829 28.4009 24.1408 28.3993 27.323 25.2212L35.2979 17.2566Z" stroke="#404040" stroke-linecap="round" stroke-linejoin="round"/>
<path d="M24.6712 26.9851C24.26 27.9741 23.6587 28.8731 22.9014 29.6313L14.9028 37.6196C13.3748 39.1441 11.3034 40.0003 9.1437 40.0003C6.98397 40.0003 4.91257 39.1441 3.38463 37.6196C1.85764 36.092 1 34.0216 1 31.863C1 29.7044 1.85764 27.634 3.38463 26.1064L11.3833 18.118C12.9113 16.5936 14.9827 15.7373 17.1424 15.7373C19.3021 15.7373 21.6036 17.4033 22.4965 18.4734C24.9961 21.4691 24.9961 26.4618 24.6712 26.9851Z" stroke="#404040" stroke-linecap="round" stroke-linejoin="round"/>
</svg>
