<svg width="66" height="42" viewBox="0 0 66 42" fill="none" xmlns="http://www.w3.org/2000/svg">
<path d="M55.2232 12.7649C56.6843 14.9987 57.4891 17.9609 57.4693 21.0311C57.4494 24.1013 56.6063 27.0414 55.1167 29.2355" stroke="#404040" stroke-linecap="round" stroke-linejoin="round"/>
<path d="M59.8223 8.05884C62.6409 10.7423 64.5282 15.5391 64.5282 21.047C64.5282 26.5549 62.6857 31.2711 59.9219 33.9412" stroke="#404040" stroke-linecap="round" stroke-linejoin="round"/>
<path d="M10.3028 12.7647C8.84184 14.9986 8.03695 17.9608 8.05682 21.031C8.07668 24.1012 8.91975 27.0412 10.4094 29.2353" stroke="#404040" stroke-linecap="round" stroke-linejoin="round"/>
<path d="M5.70588 8.05884C2.88732 10.7423 1 15.5391 1 21.047C1 26.5549 2.84252 31.2711 5.60631 33.9412" stroke="#404040" stroke-linecap="round" stroke-linejoin="round"/>
<path d="M38.6417 36.2939C38.046 37.7244 37.1887 38.9128 36.1561 39.7388C35.1235 40.5649 33.9519 40.9998 32.7593 40.9998C31.5667 40.9998 30.3951 40.5649 29.3625 39.7388C28.3299 38.9128 27.4726 37.7244 26.877 36.2939" stroke="#404040" stroke-linecap="round" stroke-linejoin="round"/>
<path d="M50.8947 35.6109H15.1133C17.0032 31.775 17.8661 27.5148 17.618 23.2462L17.4135 19.8535C17.1462 16.3441 17.8538 12.8291 19.4582 9.69615C22.29 4.4335 27.3096 1 32.9529 1C38.5961 1 43.6158 4.4335 46.4476 9.69615C48.052 12.8291 48.7596 16.3441 48.4923 19.8535L48.298 23.1439C48.042 27.4449 48.9012 31.7393 50.7925 35.6109H50.8947Z" stroke="#404040" stroke-linecap="round" stroke-linejoin="round"/>
</svg>
