<svg width="162" height="36" viewBox="0 0 162 36" fill="none" xmlns="http://www.w3.org/2000/svg">
<g clip-path="url(#clip0_1_59)">
<path d="M17.4572 25.1038V26.0955H0V0.0360603H5.45501V25.1038H17.4572Z" fill="black"/>
<path d="M44.6366 0H39.1816V26.0955H44.6366V0Z" fill="black"/>
<path d="M71.3945 26.0955H65.9395V5.95593C65.9395 5.15059 66.1015 4.38731 66.4195 3.66611C66.7376 2.94491 67.1637 2.31987 67.6918 1.78498C68.2259 1.25009 68.85 0.829384 69.5701 0.510854C70.2903 0.192323 71.0524 0.0300522 71.8565 0.0300522C72.6607 0.0300522 73.4228 0.186313 74.155 0.492823C74.8871 0.799334 75.5172 1.22605 76.0513 1.76695C76.5854 2.30785 77.0055 2.94491 77.3236 3.66611C77.6416 4.38731 77.8036 5.15059 77.8036 5.95593C77.8036 6.83339 77.6236 7.63272 77.2695 8.36595C78.2357 8.62438 79.1359 9.03907 79.9581 9.61002C80.7862 10.175 81.4943 10.8481 82.0824 11.6114C82.6706 12.3806 83.1326 13.228 83.4627 14.1656C83.7928 15.0972 83.9608 16.0768 83.9608 17.0925C83.9608 18.3245 83.7267 19.4845 83.2527 20.5843C82.7786 21.6841 82.1305 22.6397 81.3083 23.4571C80.4802 24.2745 79.52 24.9175 78.4218 25.3923C77.3236 25.8671 76.1593 26.1015 74.9351 26.1015C74.323 26.1015 73.7109 26.0354 73.1108 25.9092C72.5107 25.777 71.9346 25.5967 71.3945 25.3563V26.0955ZM71.3945 24.2564C72.4567 24.8214 73.6389 25.1099 74.9351 25.1099C76.0453 25.1099 77.0895 24.8995 78.0677 24.4728C79.0459 24.0461 79.898 23.4751 80.6182 22.7539C81.3383 22.0327 81.9084 21.1853 82.3345 20.2177C82.7606 19.2501 82.9706 18.2104 82.9706 17.0985C82.9706 16.0107 82.7846 15.013 82.4185 14.1055C82.0524 13.198 81.5423 12.3987 80.8942 11.7135C80.2461 11.0284 79.478 10.4634 78.5958 10.0127C77.7136 9.56194 76.7595 9.24341 75.7453 9.0571C76.0753 8.55827 76.3334 8.07746 76.5254 7.60267C76.7174 7.12788 76.8075 6.58698 76.8075 5.97396C76.8075 5.31286 76.6754 4.68181 76.4174 4.07479C76.1593 3.47379 75.8053 2.94491 75.3552 2.49416C74.9051 2.04341 74.383 1.68882 73.7769 1.43039C73.1768 1.17196 72.5287 1.03974 71.8506 1.03974H71.3885V24.2564H71.3945Z" fill="black"/>
<path d="M113.175 6.13623L110.552 0.0360603H116.572L127.656 26.1015H121.637L118.378 18.4447H109.352L106.34 26.1015H105.277L113.175 6.13623ZM109.742 17.4471H117.994L113.709 7.44641L109.742 17.4471Z" fill="black"/>
<path d="M150.07 8.77462C149.668 8.28781 149.38 7.77696 149.2 7.23606C149.02 6.70117 148.936 6.14224 148.936 5.5773C148.936 4.84407 149.098 4.14691 149.434 3.47379C149.764 2.80067 150.22 2.2177 150.796 1.70684C151.372 1.202 152.056 0.793322 152.848 0.486812C153.64 0.180301 154.493 0.0300503 155.417 0.0300503C156.407 0.0300503 157.367 0.234391 158.303 0.637062C159.233 1.03973 160.008 1.6227 160.62 2.37396L159.84 2.86077C159.294 2.21169 158.627 1.71887 157.841 1.3823C157.049 1.04574 156.221 0.877463 155.345 0.877463C154.637 0.877463 153.947 0.991653 153.274 1.22604C152.602 1.46043 151.99 1.80902 151.45 2.2778L160.266 13.0838C160.854 13.793 161.292 14.5503 161.574 15.3496C161.856 16.1489 162 16.9663 162 17.8017C162 18.8955 161.754 19.9472 161.256 20.9509C160.758 21.9546 160.08 22.8381 159.221 23.6013C158.357 24.3646 157.343 24.9656 156.179 25.4164C155.009 25.8611 153.754 26.0835 152.41 26.0835C150.874 26.0835 149.41 25.783 148.017 25.188C146.625 24.587 145.467 23.7215 144.549 22.5856L145.365 22.0988C146.193 23.1326 147.231 23.9139 148.479 24.4427C149.734 24.9716 151.042 25.2361 152.41 25.2361C153.214 25.2361 153.995 25.1399 154.763 24.9476C155.531 24.7553 156.257 24.4728 156.941 24.1122C157.625 23.7456 158.243 23.3129 158.801 22.802C159.354 22.2972 159.81 21.7142 160.164 21.0651L150.07 8.77462Z" fill="black"/>
<path d="M10.676 28.5957L11.5341 29.4551L5.00493 36L4.13477 35.1225L10.676 28.5957Z" fill="black"/>
</g>
<defs>
<clipPath id="clip0_1_59">
<rect width="162" height="36" fill="white"/>
</clipPath>
</defs>
</svg>
