<svg width="37" height="36" viewBox="0 0 37 36" fill="none" xmlns="http://www.w3.org/2000/svg">
<path d="M18.986 35.5C28.6509 35.5 36.486 27.665 36.486 18C36.486 8.33502 28.6509 0.5 18.986 0.5C9.32098 0.5 1.48596 8.33502 1.48596 18C1.48596 27.665 9.32098 35.5 18.986 35.5Z" stroke="#404040" stroke-linecap="round" stroke-linejoin="round"/>
<path d="M13.8135 12.5871C13.8135 11.1496 14.3845 9.77098 15.401 8.75449C16.4175 7.73801 17.7962 7.16689 19.2337 7.16689C20.6712 7.16689 22.0499 7.73801 23.0663 8.75449C24.0828 9.77098 24.6539 11.1496 24.6539 12.5871C24.6539 15.5803 22.2268 18.8423 19.2337 18.8423C16.2405 18.8423 13.8135 15.5732 13.8135 12.5871Z" stroke="#404040" stroke-miterlimit="10"/>
<path d="M29.8194 31.4238C29.0269 27.5108 24.4841 23.7888 18.986 23.7888C13.488 23.7888 8.93814 27.5108 8.15271 31.4238" stroke="#404040" stroke-miterlimit="10" stroke-linecap="round"/>
</svg>
