<svg width="97" height="18" viewBox="0 0 97 18" fill="none" xmlns="http://www.w3.org/2000/svg">
<path d="M0.139781 1.184H2.01178L5.70178 12.344L9.42778 1.184H11.2098L6.63778 14H4.69378L0.139781 1.184ZM13.6353 1.184V3.056H12.0873V1.184H13.6353ZM13.6353 4.712V14H12.0873V4.712H13.6353ZM23.9435 11.066C23.4755 13.226 22.1255 14.306 19.8935 14.306C18.5255 14.306 17.4455 13.892 16.6715 13.028C15.8975 12.182 15.5195 10.994 15.5195 9.482C15.5195 7.988 15.9155 6.782 16.7075 5.846C17.4995 4.91 18.5435 4.442 19.8395 4.442C21.2615 4.442 22.3235 4.928 23.0075 5.9C23.6915 6.872 24.0515 8.078 24.0515 9.554V9.77H17.0675L17.0495 9.878C17.0495 10.868 17.3015 11.642 17.8235 12.2C18.3275 12.776 19.0475 13.046 19.9475 13.046C20.6135 13.046 21.1355 12.902 21.5315 12.578C21.9275 12.272 22.2335 11.768 22.4495 11.066H23.9435ZM22.4675 8.528C22.3955 7.646 22.1255 6.962 21.6575 6.458C21.1895 5.954 20.5595 5.702 19.8035 5.702C19.0475 5.702 18.4355 5.954 17.9495 6.458C17.4455 6.962 17.1575 7.664 17.0675 8.528H22.4675ZM24.8275 4.712H26.5195L28.6435 12.362L30.5335 4.712H32.2075L34.1695 12.362L36.2755 4.712H37.8595L34.8895 14H33.2695L31.3615 6.656L29.4715 14H27.8155L24.8275 4.712ZM49.9759 1.184L54.9799 14H53.0899L51.6679 10.076H46.2859L44.8279 14H43.0279L48.0679 1.184H49.9759ZM51.1639 8.726L48.9859 2.804L46.7719 8.726H51.1639ZM57.6158 1.184V14H56.0678V1.184H57.6158ZM61.606 1.184V14H60.058V1.184H61.606Z" fill="#808080"/>
<path d="M96.7071 9.70711C97.0976 9.31658 97.0976 8.68342 96.7071 8.29289L90.3431 1.92893C89.9526 1.53841 89.3195 1.53841 88.9289 1.92893C88.5384 2.31946 88.5384 2.95262 88.9289 3.34315L94.5858 9L88.9289 14.6569C88.5384 15.0474 88.5384 15.6805 88.9289 16.0711C89.3195 16.4616 89.9526 16.4616 90.3431 16.0711L96.7071 9.70711ZM77 10H96V8H77V10Z" fill="#808080"/>
</svg>
