<svg width="29" height="36" viewBox="0 0 29 36" fill="none" xmlns="http://www.w3.org/2000/svg">
<path d="M25.7796 35.5H3.47855C3.13633 35.5025 2.80547 35.3522 2.54983 35.0783C2.29419 34.8044 2.13189 34.4262 2.09425 34.0166L1.00066 14.2583C0.994899 14.0376 1.02675 13.8178 1.09428 13.6124C1.16181 13.4071 1.26356 13.2205 1.39327 13.0644C1.52298 12.9082 1.67791 12.7857 1.84847 12.7044C2.01903 12.6231 2.20162 12.5847 2.38496 12.5917H27.1016C27.4688 12.5917 27.8209 12.7673 28.0805 13.0798C28.3401 13.3924 28.4859 13.8163 28.4859 14.2583L27.1639 34.0333C27.1231 34.4398 26.9595 34.814 26.7041 35.0845C26.4488 35.355 26.1197 35.5029 25.7796 35.5V35.5Z" stroke="black" stroke-linecap="round" stroke-linejoin="round"/>
<path d="M6.63196 18V8.83332C6.63196 6.62318 7.48653 4.50357 9.00765 2.94077C10.5288 1.37797 12.5918 0.5 14.743 0.5C16.8942 0.5 18.9573 1.37797 20.4784 2.94077C21.9995 4.50357 22.8541 6.62318 22.8541 8.83332V18" stroke="black" stroke-linecap="round" stroke-linejoin="round"/>
<path d="M19.049 27.4256V27.7997H12.7202V18.0001H14.697V27.4256H19.049Z" fill="black"/>
<path d="M16.5906 28.7393L16.9011 29.0633L14.5344 31.5227L14.2196 31.1914L16.5906 28.7393Z" fill="black"/>
</svg>
