<svg width="32" height="32" viewBox="0 0 32 32" fill="none" xmlns="http://www.w3.org/2000/svg">
<rect x="0.25" y="0.25" width="31.5" height="31.5" rx="1.75" stroke="#C6AC96" stroke-width="0.5"/>
<path d="M18.9873 16.006C18.9883 16.0846 18.9719 16.1625 18.9392 16.2348C18.9064 16.3071 18.858 16.3721 18.7971 16.4256L13.0906 21.8202C12.837 22.0599 12.4438 22.0599 12.1902 21.8202C11.9366 21.5804 11.9366 21.2088 12.1902 20.969L17.4529 15.994L12.2029 11.031C11.9493 10.7912 11.9493 10.4196 12.2029 10.1798C12.4565 9.94006 12.8496 9.94006 13.1033 10.1798L18.8098 15.5744C18.9366 15.6943 19 15.8501 19 15.994L18.9873 16.006Z" fill="#C6AC96"/>
</svg>
