<svg width="33" height="34" viewBox="0 0 33 34" fill="none" xmlns="http://www.w3.org/2000/svg">
<circle cx="16.6001" cy="17" r="16" stroke="white" stroke-width="0.5"/>
<path d="M18.4569 11.087L18.1441 10.6001H16.2517V14.9856L16.2452 19.2692C16.2484 19.301 16.2517 19.336 16.2517 19.3679C16.2517 20.4404 15.3683 21.3156 14.2786 21.3156C13.1889 21.3156 12.3056 20.4436 12.3056 19.3679C12.3056 18.2954 13.1889 17.4202 14.2786 17.4202C14.5043 17.4202 14.7235 17.4616 14.9266 17.5316V15.3929C14.7171 15.3579 14.5011 15.3388 14.2786 15.3388C12.0315 15.342 10.2003 17.1497 10.2003 19.3711C10.2003 21.5924 12.0315 23.4001 14.2818 23.4001C16.5322 23.4001 18.3634 21.5924 18.3634 19.3711V14.2759C19.179 15.0811 20.2332 15.8671 21.4003 16.1185V13.9322C20.1333 13.3784 18.8727 11.7426 18.4569 11.087Z" stroke="white" stroke-width="0.5"/>
</svg>
