<svg width="34" height="34" viewBox="0 0 34 34" fill="none" xmlns="http://www.w3.org/2000/svg">
<circle cx="16.8002" cy="17" r="16" stroke="white" stroke-width="0.5"/>
<path d="M23.4947 10.9314L19.084 16.0455L19.26 16.1973L19.0657 16.3494L24.2909 23.1095H20.3851L17.0779 18.8308L16.8907 18.5886L16.6908 18.8204L12.9566 23.1501H11.2901L15.9697 17.7241L16.1031 17.5695L15.9782 17.408L10.9094 10.8501H14.8152L17.9757 14.939L18.1629 15.1812L18.3628 14.9494L21.8281 10.9314H23.4947ZM12.9049 11.5692H12.3957L12.7071 11.972L20.6849 22.2933L20.7599 22.3904H20.8827H22.2953H22.8046L22.4931 21.9875L14.5154 11.6663L14.4404 11.5692H14.3176H12.9049Z" fill="black" stroke="white" stroke-width="0.5"/>
</svg>
