<svg width="23" height="26" viewBox="0 0 23 26" fill="none" xmlns="http://www.w3.org/2000/svg">
<path d="M19.5559 25.9994H2.94531C1.32031 25.9943 0.00507812 24.6791 0 23.0541V21.7541C0 18.5751 1.33555 15.5435 3.68672 13.4056C4.6668 12.5169 6.12422 12.3951 7.23633 13.1111C8.39922 13.8576 9.78555 14.2537 11.2531 14.2537C12.7207 14.2537 14.107 13.8576 15.2699 13.1111C16.382 12.3951 17.8395 12.5169 18.8195 13.4056C21.1707 15.5435 22.5113 18.5751 22.5062 21.7541V23.0541C22.5012 24.6841 21.1809 25.9994 19.5559 25.9994ZM5.65195 13.6595C5.17461 13.6595 4.71758 13.8373 4.36719 14.1572C2.2293 16.1021 1.01055 18.8646 1.01055 21.7541V23.0541C1.01562 24.1205 1.87383 24.9787 2.94023 24.9837H19.5508C20.6172 24.9837 21.4805 24.1205 21.4805 23.0541V21.7541C21.4805 18.8646 20.2617 16.1072 18.1238 14.1572C17.484 13.5783 16.5344 13.497 15.8082 13.9642C14.4828 14.8173 12.9035 15.2693 11.243 15.2693C9.58242 15.2693 8.00312 14.8173 6.67773 13.9642C6.37812 13.7662 6.01758 13.6595 5.65195 13.6595Z" fill="#404040"/>
<path d="M11.2539 13.1016C7.63828 13.0965 4.7082 10.1664 4.70312 6.55078C4.70312 2.94023 7.63828 0 11.2539 0C14.8695 0.00507813 17.7996 2.93516 17.8047 6.55078C17.7996 10.1613 14.8645 13.1016 11.2539 13.1016ZM11.2539 1.0207C8.19687 1.0207 5.71875 3.49883 5.71875 6.55586C5.71875 9.61289 8.19687 12.091 11.2539 12.091C14.3109 12.091 16.7891 9.61289 16.7891 6.55586C16.784 3.49883 14.3109 1.0207 11.2539 1.0207Z" fill="#404040"/>
</svg>
